<svg xmlns="http://www.w3.org/2000/svg"><symbol id="search" viewBox="0 0 24 24"><defs><style>.cls-1{fill-rule:evenodd}</style></defs><path d="M15.85 16.56a9.51 9.51 0 1 1 .71-.71L24 23.29l-.71.71zM9.5 1A8.5 8.5 0 1 1 1 9.5 8.51 8.51 0 0 1 9.5 1z" class="cls-1"/></symbol><symbol id="menu" viewBox="0 0 24 24"><defs><style>.cls-1{fill-rule:evenodd}</style></defs><path d="M24 18.6H0v-1h24zm0-6H0v-1h24zm0-6H0v-1h24z" class="cls-1"/></symbol><symbol id="shopping" viewBox="0 0 24 24"><path d="M23.66 4l-.72 2h-1.88l-3.37 11.62H4.82L.34 6.94h16.34l-.55 1.94H3.26l2.86 6.8h10.13L19.58 4zM8.6 18.6a1.46 1.46 0 1 0 1.46 1.45A1.45 1.45 0 0 0 8.6 18.6zm6.7-6.81l-1.84 6.81a1.46 1.46 0 1 0 1.46 1.45 1.45 1.45 0 0 0-1.46-1.45z"/></symbol><symbol id="instagram" viewBox="0 0 24 24"><path d="M12 2.16c3.2 0 3.58 0 4.85.07 3.25.15 4.77 1.69 4.92 4.92.06 1.27.07 1.65.07 4.85s0 3.59-.07 4.85c-.15 3.23-1.66 4.77-4.92 4.92-1.27.06-1.64.07-4.85.07s-3.58 0-4.85-.07c-3.26-.15-4.77-1.7-4.92-4.92-.06-1.27-.07-1.64-.07-4.85s0-3.58.07-4.85c.15-3.23 1.67-4.77 4.92-4.92 1.27-.05 1.65-.07 4.85-.07zM12 0C8.74 0 8.33 0 7.05.07c-4.35.2-6.78 2.62-7 7C0 8.33 0 8.74 0 12s0 3.67.07 5c.2 4.36 2.62 6.78 7 7H12c3.26 0 3.67 0 4.95-.07 4.35-.2 6.78-2.62 7-7C24 15.67 24 15.26 24 12s0-3.67-.07-4.95c-.2-4.35-2.62-6.78-7-7C15.67 0 15.26 0 12 0zm0 5.84A6.16 6.16 0 1 0 18.16 12 6.16 6.16 0 0 0 12 5.84zM12 16a4 4 0 1 1 4-4 4 4 0 0 1-4 4zm6.41-11.85a1.44 1.44 0 1 0 1.43 1.44 1.44 1.44 0 0 0-1.43-1.44z"/></symbol><symbol id="pinterest" viewBox="0 0 24 24"><defs><style>.cls-1{fill-rule:evenodd}</style></defs><path d="M12 0a12 12 0 0 0-4.37 23.17 11.37 11.37 0 0 1 0-3.44l1.41-6A4.33 4.33 0 0 1 8.72 12c0-1.67 1-2.92 2.17-2.92a1.51 1.51 0 0 1 1.52 1.69 24.2 24.2 0 0 1-1 4 1.75 1.75 0 0 0 1.78 2.17c2.13 0 3.77-2.25 3.77-5.5a4.73 4.73 0 0 0-5-4.88 5.19 5.19 0 0 0-5.42 5.21 4.68 4.68 0 0 0 .89 2.73.37.37 0 0 1 .09.35l-.35 1.35c0 .22-.17.27-.4.16-1.5-.7-2.43-2.89-2.43-4.65 0-3.78 2.75-7.26 7.92-7.26 4.17 0 7.4 3 7.4 6.93 0 4.14-2.6 7.46-6.22 7.46a3.21 3.21 0 0 1-2.75-1.37l-.75 2.85a13.47 13.47 0 0 1-1.49 3.15A12.2 12.2 0 0 0 12 24a12 12 0 0 0 0-24z" class="cls-1"/></symbol><symbol id="facebook" viewBox="0 0 24 24"><path d="M8.54 8h-3v4h3v12h5V12h3.64l.36-4h-4V6.33c0-1 .19-1.33 1.11-1.33h2.89V0h-3.81c-3.6 0-5.19 1.58-5.19 4.61z"/></symbol></svg>