<svg xmlns="http://www.w3.org/2000/svg" width="16" height="16" viewBox="0 0 16 16"><path fill="#b279ad" d="M4.2 6.9a1.5 1.5 0 0 0-1.4 1.5 1.4 1.4 0 0 0 1.4 1.4h.6l1.5-.6 1.3-.5c.1-.1.1-.4 0-.4l-1.3-.6-1.4-.6zm8.9 2.9a1.4 1.4 0 0 0 1.4-1.4 1.5 1.5 0 0 0-1.4-1.5l-.6.2-1.5.6-1.3.5c-.1 0-.1.3 0 .4l1.3.5 1.4.5zm-5.9 3.1a1.3 1.3 0 0 0 1.4 1.3 1.4 1.4 0 0 0 1.5-1.3 1.4 1.4 0 0 0-.2-.7l-.6-1.5-.5-1.2a.2.2 0 0 0-.4 0l-.5 1.2-.6 1.5a1.5 1.5 0 0 0-.1.7zm2.9-9.2a1.5 1.5 0 0 0-1.5-1.4 1.4 1.4 0 0 0-1.4 1.4 1.5 1.5 0 0 0 .1.7l.6 1.4.5 1.3a.2.2 0 0 0 .4 0l.5-1.3.6-1.4a1.4 1.4 0 0 0 .2-.7z"/><path fill="#f287b7" d="M3 11.2a1.8 1.8 0 0 0 .1 2.5 1.7 1.7 0 0 0 2.4.1 1.3 1.3 0 0 0 .4-.7l.8-1.8.7-1.6c.1-.2-.1-.4-.4-.3l-1.5.6-1.8.8z"/><path fill="#bd4f84" d="M10.8 12.9a1.7 1.7 0 0 0 2.3 0 1.6 1.6 0 0 0 0-2.2l-.6-.4-1.6-.7L9.5 9a.2.2 0 0 0-.3.3l.6 1.4.6 1.6c.1.2.2.5.4.6zM6.5 3.8a1.6 1.6 0 0 0-2.4 0 1.6 1.6 0 0 0 0 2.4 1.5 1.5 0 0 0 .6.5l1.8.7 1.5.7c.2.1.4-.2.4-.4l-.7-1.5L7 4.5a1.8 1.8 0 0 0-.5-.7zm6.7 2.5a1.7 1.7 0 0 0 .1-2.4 1.9 1.9 0 0 0-2.5-.2 1.6 1.6 0 0 0-.4.7l-.8 1.7-.8 1.5c-.1.2.1.4.4.3l1.5-.5 1.8-.7z"/></svg>