<svg xmlns="http://www.w3.org/2000/svg" width="64" height="64" viewBox="0 0 64 64"><path fill="#b279ad" d="M14.5 26.4a5.9 5.9 0 0 0 0 11.7 5.4 5.4 0 0 0 2.5-.6l6.1-2.4 5.1-2a.9.9 0 0 0 0-1.6l-5.1-2-6-2.4a5.9 5.9 0 0 0-2.6-.7zm36.2 11.7a5.9 5.9 0 0 0 0-11.7 5.4 5.4 0 0 0-2.5.6l-6.1 2.5-5.1 2a.8.8 0 0 0 0 1.5l5.1 2.1 6 2.3a4.8 4.8 0 0 0 2.6.7zM26.6 50.6a5.9 5.9 0 0 0 11.7 0 5.8 5.8 0 0 0-.6-2.6l-2.4-6-2.1-5.1a.8.8 0 0 0-1.5 0L29.6 42l-2.3 5.9a5 5 0 0 0-.7 2.7zm11.7-37.2a5.9 5.9 0 0 0-11.7 0 5.1 5.1 0 0 0 .6 2.5l2.4 6.1 2 5.1a.9.9 0 0 0 1.6 0l2-5.1 2.4-5.9a6 6 0 0 0 .7-2.7z"/><path fill="#f287b7" d="M9.6 44a7.1 7.1 0 0 0 .2 10 7.1 7.1 0 0 0 10.1.3 8.1 8.1 0 0 0 1.7-2.8l3.1-7.5 2.7-6.2a1 1 0 0 0-1.3-1.4l-6.3 2.7-7.2 3.1a6.7 6.7 0 0 0-3 1.8z"/><path fill="#bd4f84" d="M41.5 50.9a6.6 6.6 0 0 0 9.3-9.3 6.4 6.4 0 0 0-2.5-1.5l-6.7-2.9-5.7-2.4a.9.9 0 0 0-1.2 1.2l2.4 5.7 2.8 6.5a6.3 6.3 0 0 0 1.6 2.7zM24 13.6a7 7 0 0 0-9.9.2 7 7 0 0 0-.2 9.9 6.3 6.3 0 0 0 2.7 1.6l7.3 3.1 6.2 2.7a1.1 1.1 0 0 0 1.3-1.4l-2.7-6.1-3-7.1a6.6 6.6 0 0 0-1.7-2.9zm27.1 10.3a7.1 7.1 0 0 0-9.6-10.5 6.8 6.8 0 0 0-1.8 2.6l-3.4 7.2-2.9 6a1 1 0 0 0 1.2 1.4l6.3-2.4 7.2-2.7a6.7 6.7 0 0 0 3-1.6z"/></svg>