<svg xmlns="http://www.w3.org/2000/svg" width="256" height="168" viewBox="0 0 256 168"><path fill="#231f20" d="M33.9 29.9h41.4v1.6H35.7v27.7h37v1.6h-37v31h-1.8zm52.6 61.9V25.3h1.8v66.5zM152 63.2c0-6.6 0-11.5-.1-14.7h1.8c.1 2.1.2 9.4.1 12.7 2.1-6.6 8.8-13.7 18.1-13.9v1.9c-9.8.1-18.1 9-18.1 19.3v23.3H152zm60.9 19a70.8 70.8 0 0 0 .5 9.6h-1.7a47.4 47.4 0 0 1-.6-9.4c-2.4 6.6-8 10.6-18.8 10.6s-16.2-7.3-16.2-13.2c0-10.7 10.1-13.7 22.4-13.7h12.6v-4.2c0-6.8-3.4-13-15-13s-14.5 5-15.7 11.7h-1.8c1.1-7 5.4-13.3 17.7-13.3s16.6 6.6 16.6 14.3zm-1.8-14.4h-12.7c-8.6 0-20.4 1.3-20.4 12.1 0 6.9 5.7 11.5 14.3 11.5 13.9 0 18.8-6.9 18.8-17.4zm18.3 24V25.3h1.8v66.5zM93.1 124.6c.4 1.5 1.7 2.3 4.1 2.3s3.2-.8 3.2-1.9-.6-1.7-3.9-2.1c-5-.7-5.8-2.4-5.8-4.1s1.4-4.1 5.9-4.1 6.2 2.4 6.4 4.1h-3c-.2-.8-.8-2-3.5-2s-2.8 1-2.8 1.7.6 1.5 3.6 1.9c5.2.7 6.1 2.4 6.1 4.4s-1.9 4.3-6.4 4.3-6.5-1.6-6.9-4.5zm21.9-16.1v8.8c.4-.9 1.7-2.6 4.9-2.6s5.3 1.9 5.3 5.8v8.3h-3.1v-7.9c0-2.2-.7-3.8-3.1-3.8s-4 2.1-4 5v6.7h-3v-20.3zm33.7 13.4c0 3.9-2.6 7.2-7.5 7.2a7 7 0 0 1-7.4-7.2c0-3.9 2.8-7.2 7.5-7.2a7 7 0 0 1 7.4 7.2zm-11.8 0c0 2.5 1.5 4.8 4.4 4.8s4.3-2.2 4.3-4.8-1.5-4.8-4.4-4.8-4.3 2.2-4.3 4.8zm20.5 12.8v-16.2c0-1.2 0-2.3-.1-3.5h3a13.5 13.5 0 0 1 .1 2.3c.8-1.4 2.3-2.6 5.2-2.6s6.4 3 6.4 7-3.2 7.4-6.9 7.4-4-1.1-4.7-2.2v7.8zm7.2-17.6c-3 0-4.3 2.1-4.3 4.9s1.4 4.7 4.3 4.7 4.3-2.3 4.3-4.9-1.4-4.7-4.3-4.7z"/><path fill="none" stroke="#ec008c" stroke-miterlimit="10" stroke-width="1.15" d="M23.2 99.8h215.4"/><path fill="#b279ad" d="M103.5 60.5a5.8 5.8 0 0 0-5.6 5.9 5.7 5.7 0 0 0 5.6 5.9 5.8 5.8 0 0 0 2.6-.6l6-2.5 5.1-2a.9.9 0 0 0 0-1.6l-5.1-2-5.9-2.4a6 6 0 0 0-2.7-.7zm36.3 11.8a5.8 5.8 0 0 0 5.7-5.9 5.9 5.9 0 0 0-5.7-5.9 5.2 5.2 0 0 0-2.5.7l-6.1 2.4-5.1 2a.9.9 0 0 0 0 1.6l5.1 2 5.9 2.4a6 6 0 0 0 2.7.7zm-24.2 12.4a5.9 5.9 0 0 0 11.8 0 5.2 5.2 0 0 0-.7-2.5l-2.4-6.1-2-5.1a.9.9 0 0 0-1.6 0l-2 5.1-2.4 5.9a6.4 6.4 0 0 0-.7 2.7zm11.8-37.2a5.9 5.9 0 0 0-11.8 0 5.6 5.6 0 0 0 .7 2.6l2.4 6 2 5.1a.9.9 0 0 0 1.6 0l2-5.1 2.4-5.9a6 6 0 0 0 .7-2.7z"/><path fill="#f287b7" d="M98.7 78.1a7 7 0 0 0 .2 10.1 7.2 7.2 0 0 0 10.1.2 6.6 6.6 0 0 0 1.6-2.8l3.2-7.4 2.7-6.3a1 1 0 0 0-1.4-1.3l-6.2 2.7-7.3 3.1a7.2 7.2 0 0 0-2.9 1.7z"/><path fill="#bd4f84" d="M130.6 85.1a6.6 6.6 0 0 0 9.3-9.3 6 6 0 0 0-2.6-1.6l-6.7-2.8-5.6-2.5a.9.9 0 0 0-1.2 1.3l2.4 5.6 2.8 6.6a6.3 6.3 0 0 0 1.6 2.7zm-17.5-37.4A7.1 7.1 0 0 0 103 57.8a5.7 5.7 0 0 0 2.7 1.6l7.3 3.2 6.1 2.6a1 1 0 0 0 1.4-1.3l-2.7-6.2-3-7.1a6.6 6.6 0 0 0-1.7-2.9zM140.2 58a7 7 0 0 0 .2-9.9 6.9 6.9 0 0 0-9.8-.6 5.4 5.4 0 0 0-1.8 2.7l-3.5 7.1-2.9 6a1 1 0 0 0 1.3 1.4l6.3-2.4 7.2-2.7a7.3 7.3 0 0 0 3-1.6z"/></svg>