<svg xmlns="http://www.w3.org/2000/svg" width="32" height="32" viewBox="0 0 32 32"><path fill="#b279ad" d="M8.2 13.5a2.6 2.6 0 0 0-2.5 2.6 2.5 2.5 0 0 0 2.5 2.6l1.1-.2 2.7-1.1 2.3-.9c.3-.2.3-.6 0-.7l-2.3-.9-2.6-1.1a2.7 2.7 0 0 0-1.2-.3zm16.1 5.2a2.5 2.5 0 0 0 2.5-2.6 2.6 2.6 0 0 0-2.5-2.6 2 2 0 0 0-1.1.3l-2.7 1.1-2.3.9c-.3.1-.3.5 0 .7l2.3.9 2.6 1a2.7 2.7 0 0 0 1.2.3zm-10.7 5.6a2.5 2.5 0 0 0 2.6 2.5 2.6 2.6 0 0 0 2.6-2.5 2.7 2.7 0 0 0-.3-1.2l-1.1-2.7-.9-2.2a.3.3 0 0 0-.6 0l-1 2.2-1 2.7a2.1 2.1 0 0 0-.3 1.2zm5.2-16.6a2.6 2.6 0 0 0-2.6-2.5 2.5 2.5 0 0 0-2.6 2.5 2.7 2.7 0 0 0 .3 1.2l1 2.7.9 2.2c.2.3.6.3.7 0l.9-2.2 1.1-2.7a2.1 2.1 0 0 0 .3-1.2z"/><path fill="#f287b7" d="M6 21.3a3.3 3.3 0 0 0 .1 4.5 3.2 3.2 0 0 0 4.5.1 4.2 4.2 0 0 0 .8-1.2l1.4-3.3 1.2-2.8c.1-.4-.3-.8-.6-.6l-2.8 1.2-3.2 1.4a2.7 2.7 0 0 0-1.4.7z"/><path fill="#bd4f84" d="M20.2 24.4a2.9 2.9 0 0 0 4.1-.1 2.8 2.8 0 0 0 .1-4 3.7 3.7 0 0 0-1.2-.7l-2.9-1.3-2.6-1.1a.4.4 0 0 0-.5.6l1.1 2.5 1.2 2.9a2.4 2.4 0 0 0 .7 1.2zM12.4 7.8a3.1 3.1 0 0 0-4.4.1 3.2 3.2 0 0 0-.1 4.4 3.3 3.3 0 0 0 1.3.7l3.2 1.4 2.7 1.2c.4.1.8-.2.6-.6l-1.1-2.7-1.4-3.2a2.6 2.6 0 0 0-.8-1.3zm12.1 4.6a3.2 3.2 0 0 0-4.3-4.7 3.2 3.2 0 0 0-.8 1.2l-1.5 3.2-1.3 2.7c-.2.3.2.7.6.6l2.8-1.1 3.2-1.2a3.3 3.3 0 0 0 1.3-.7z"/></svg>